<svg xmlns="http://www.w3.org/2000/svg" viewBox="0 0 960 640">
  <defs>
    <linearGradient id="grad" x1="0" y1="0" x2="1" y2="1">
      <stop offset="0%" stop-color="#f9f3e8" />
      <stop offset="100%" stop-color="#d4af37" />
    </linearGradient>
  </defs>
  <rect width="960" height="640" fill="#061513" />
  <path d="M200 520C220 460 280 420 340 450C410 480 480 400 540 420C600 440 680 380 740 420C800 460 820 530 720 560C620 590 540 520 460 540C380 560 300 560 200 520Z" fill="url(#grad)" opacity="0.9" />
  <path d="M260 200C310 160 370 170 420 190C470 210 540 180 590 220C640 260 680 200 740 220C800 240 820 300 760 330C700 360 620 320 560 340C500 360 440 330 380 350C320 370 280 310 260 200Z" fill="#f4f1e9" opacity="0.7" />
  <circle cx="750" cy="110" r="75" fill="rgba(212,175,55,0.3)" />
</svg>
